<?xml version="1.0" standalone="no"?><!DOCTYPE svg PUBLIC "-//W3C//DTD SVG 1.1//EN" "http://www.w3.org/Graphics/SVG/1.1/DTD/svg11.dtd"><svg class="icon" width="200px" height="200.00px" viewBox="0 0 1024 1024" version="1.1" xmlns="http://www.w3.org/2000/svg"><path fill="#5284f6" d="M377.649394 193.058434c0 7.902977-6.209482 14.112459-13.54796 14.112459l-56.449835 0c-7.338479 0-13.54796-6.209482-13.54796-14.112459L294.103638 31.047409c0-7.902977 6.209482-14.112459 13.54796-14.112459l56.449835 0c7.338479 0 13.54796 6.209482 13.54796 14.112459L377.649394 193.058434zM749.089305 193.058434c0 7.902977-6.209482 14.112459-13.54796 14.112459l-56.449835 0c-7.338479 0-13.54796-6.209482-13.54796-14.112459L665.54355 31.047409c0-7.902977 6.209482-14.112459 13.54796-14.112459l56.449835 0c7.338479 0 13.54796 6.209482 13.54796 14.112459L749.089305 193.058434zM951.179713 95.964719l-179.510474 0 0 109.512679c0 7.902977-6.209482 14.112459-13.54796 14.112459l-101.609702 0c-7.338479 0-13.54796-6.209482-13.54796-14.112459L642.963616 95.400221l-242.734289-0.564498 0 110.077178c0 7.902977-6.209482 14.112459-13.54796 14.112459l-101.609702 0c-7.338479 0-13.54796-6.209482-13.54796-14.112459L271.523705 95.400221 92.01323 95.400221c-9.031974 0-16.370452 7.338479-16.370452 16.370452L75.642778 970.937155c0 9.031974 7.338479 16.370452 16.370452 16.370452l859.166483 0c9.031974 0 16.370452-7.338479 16.370452-16.370452L967.550165 112.335171C967.550165 103.303197 960.211687 95.964719 951.179713 95.964719zM681.349504 676.833517 558.288864 676.833517l0 123.060639L485.468578 799.894157l0-123.060639L362.407938 676.833517 362.407938 604.01323 485.468578 604.01323 485.468578 480.952591l72.820287 0L558.288864 604.01323l123.060639 0L681.349504 676.833517zM911.664829 322.893054 132.092613 322.893054l0-25.402426 779.572216 0L911.664829 322.893054z" /></svg>