<?xml version="1.0" standalone="no"?><!DOCTYPE svg PUBLIC "-//W3C//DTD SVG 1.1//EN" "http://www.w3.org/Graphics/SVG/1.1/DTD/svg11.dtd"><svg t="1552887626629" class="icon" style="" viewBox="0 0 1024 1024" version="1.1" xmlns="http://www.w3.org/2000/svg" p-id="882" xmlns:xlink="http://www.w3.org/1999/xlink" width="48" height="48"><defs><style type="text/css"></style></defs><path d="M730.243584 613.740544l0 62.281728q0 28.5696-20.855808 50.853888t-53.710848 34.569216-67.424256 18.57024-67.13856 6.285312q-117.13536 0-195.70176-79.423488t-78.5664-197.701632q0-115.992576 77.709312-193.701888t193.701888-77.709312q19.427328 0 43.140096 2.571264t53.139456 10.285056 52.85376 19.427328 39.426048 32.283648 15.998976 46.282752l0 62.281728q0 9.142272-9.142272 9.142272l-67.424256 0q-9.142272 0-9.142272-9.142272l0-39.99744q0-24.569856-37.426176-38.56896t-78.5664-13.999104q-79.99488 0-130.563072 52.282368t-50.568192 135.7056q0 86.280192 52.282368 142.562304t133.420032 56.282112q38.854656 0 78.852096-13.713408t39.99744-37.711872l0-39.99744q0-3.999744 2.571264-6.571008t5.999616-2.571264l67.995648 0q3.428352 0 6.285312 2.571264t2.85696 6.571008zm-218.271744-467.398656q-74.28096 0-141.990912 29.140992t-116.563968 77.995008-77.995008 116.563968-29.140992 141.990912 29.140992 141.990912 77.995008 116.563968 116.563968 77.995008 141.990912 29.140992 141.990912-29.140992 116.563968-77.995008 77.995008-116.563968 29.140992-141.990912-29.140992-141.990912-77.995008-116.563968-116.563968-77.995008-141.990912-29.140992zm438.829056 365.69088q0 119.420928-58.853376 220.271616t-159.704064 159.704064-220.271616 58.853376-220.271616-58.853376-159.704064-159.704064-58.853376-220.271616 58.853376-220.271616 159.704064-159.704064 220.271616-58.853376 220.271616 58.853376 159.704064 159.704064 58.853376 220.271616z" p-id="883" fill="#707070"></path></svg>