<?xml version="1.0" standalone="no"?><!DOCTYPE svg PUBLIC "-//W3C//DTD SVG 1.1//EN" "http://www.w3.org/Graphics/SVG/1.1/DTD/svg11.dtd"><svg t="1557106674512" class="icon" style="" viewBox="0 0 1024 1024" version="1.1" xmlns="http://www.w3.org/2000/svg" p-id="2038" xmlns:xlink="http://www.w3.org/1999/xlink" width="64" height="64"><defs><style type="text/css"></style></defs><path d="M215.04512 602.99776a32 32 0 0 1-32-31.98976l-0.04096-157.99808a32 32 0 0 1 31.98976-32.01024h0.01024a32 32 0 0 1 32 31.98976l0.04096 157.99808a32 32 0 0 1-31.98976 32.01024h-0.01024z" p-id="2039"></path><path d="M806.07744 920.57088H297.6c-63.13472 0-114.49344-51.36384-114.49344-114.49344l-0.02048-58.76736a32 32 0 0 1 31.98976-32.01024h0.01024a32 32 0 0 1 32 31.98976l0.02048 58.7776c0 27.8528 22.65088 50.50368 50.49344 50.50368h508.47744c27.84256 0 50.49344-22.65088 50.49344-50.49344V224.1024c0-27.84256-22.65088-50.49344-50.49344-50.49344H297.6c-27.84256 0-50.49344 22.65088-50.49344 50.49344v18.89792a32 32 0 1 1-64 0V224.1024c0-63.13472 51.36384-114.49344 114.49344-114.49344h508.47744c63.13472 0 114.49344 51.36384 114.49344 114.49344v581.96992c0 63.13472-51.36384 114.49856-114.49344 114.49856z" p-id="2040"></path><path d="M723.00032 351.99488H448.08704a32 32 0 1 1 0-64h274.91328a32 32 0 1 1 0 64z m0.9984 182.00064H449.08544a32 32 0 1 1 0-64h274.91328a32 32 0 1 1 0 64z m0 181.00224H449.08544a32 32 0 1 1 0-64h274.91328a32 32 0 1 1 0 64z m-441.3952-27.41248H153.61024a32 32 0 1 1 0-64h128.99328a32 32 0 1 1 0 64zM279.6032 357.5808H150.60992a32 32 0 1 1 0-64H279.6032a32 32 0 1 1 0 64z" p-id="2041"></path></svg>