<?xml version="1.0" standalone="no"?><!DOCTYPE svg PUBLIC "-//W3C//DTD SVG 1.1//EN" "http://www.w3.org/Graphics/SVG/1.1/DTD/svg11.dtd"><svg t="1557106599925" class="icon" style="" viewBox="0 0 1024 1024" version="1.1" xmlns="http://www.w3.org/2000/svg" p-id="1798" xmlns:xlink="http://www.w3.org/1999/xlink" width="64" height="64"><defs><style type="text/css"></style></defs><path d="M392.88 328.78h225.33a28.69 28.69 0 0 0 28.69-28.69 28.69 28.69 0 0 0-28.69-28.69H392.88a28.69 28.69 0 0 0-28.69 28.69 28.69 28.69 0 0 0 28.69 28.69zM281.73 264.75a35.34 35.34 0 1 0 35.34 35.34 35.34 35.34 0 0 0-35.34-35.34zM392.88 469.89h225.33a28.69 28.69 0 0 0 28.69-28.69 28.69 28.69 0 0 0-28.69-28.69H392.88a28.69 28.69 0 0 0-28.69 28.69 28.69 28.69 0 0 0 28.69 28.69zM281.73 405.86a35.34 35.34 0 1 0 35.34 35.34 35.34 35.34 0 0 0-35.34-35.34zM392.88 611h177.45a28.69 28.69 0 0 0 0-57.39H392.88a28.69 28.69 0 0 0 0 57.39zM281.73 547a35.34 35.34 0 1 0 35.34 35.34A35.34 35.34 0 0 0 281.73 547zM476.85 694.72h-84a28.69 28.69 0 0 0-28.69 28.69 28.69 28.69 0 0 0 28.69 28.69h84a28.69 28.69 0 0 0 28.69-28.69 28.69 28.69 0 0 0-28.69-28.69zM281.73 688.07a35.34 35.34 0 1 0 35.34 35.34 35.34 35.34 0 0 0-35.34-35.34z" p-id="1799"></path><path d="M916.57 168.39a28.69 28.69 0 0 0-39.19 10.51L800 313V131.49a67.54 67.54 0 0 0-67.54-67.54H160.81a67.54 67.54 0 0 0-67.54 67.54V892a67.54 67.54 0 0 0 67.54 67.54h571.68A67.54 67.54 0 0 0 800 892V427.83l127.09-220.25a28.7 28.7 0 0 0-10.52-39.19zM742.64 875.68a26.49 26.49 0 0 1-26.49 26.49h-539a26.49 26.49 0 0 1-26.49-26.49V147.82a26.49 26.49 0 0 1 26.49-26.49h539a26.49 26.49 0 0 1 26.49 26.49v264.65L550.5 745.53a28.69 28.69 0 1 0 49.7 28.68L742.64 527.3z" p-id="1800"></path></svg>